<mxfile host="Electron" modified="2024-04-16T17:23:37.614Z" agent="Mozilla/5.0 (Macintosh; Intel Mac OS X 10_15_7) AppleWebKit/537.36 (KHTML, like Gecko) draw.io/22.0.3 Chrome/114.0.5735.289 Electron/25.8.4 Safari/537.36" etag="hslA4ojh1QV62yzD1t3Q" version="22.0.3" type="device" pages="2">
  <diagram name="Page-1" id="LpfrILhv6blfL5ynoNOx">
    <mxGraphModel dx="984" dy="718" grid="1" gridSize="10" guides="1" tooltips="1" connect="1" arrows="1" fold="1" page="1" pageScale="1" pageWidth="827" pageHeight="1169" math="0" shadow="0">
      <root>
        <mxCell id="0" />
        <mxCell id="1" parent="0" />
        <mxCell id="u_KLf7gBActRq5No8dPF-1" value="" style="shape=mxgraph.bpmn.conversation;perimeter=hexagonPerimeter2;whiteSpace=wrap;html=1;aspect=fixed;bpmnConversationType=conv;" parent="1" vertex="1">
          <mxGeometry x="36.2" y="31.88" width="753.95" height="646.25" as="geometry" />
        </mxCell>
        <mxCell id="u_KLf7gBActRq5No8dPF-2" value="" style="shape=mxgraph.bpmn.conversation;perimeter=hexagonPerimeter2;whiteSpace=wrap;html=1;aspect=fixed;bpmnConversationType=conv;" parent="1" vertex="1">
          <mxGeometry x="211.93" y="177.5" width="402.49" height="345" as="geometry" />
        </mxCell>
        <mxCell id="u_KLf7gBActRq5No8dPF-3" value="Адаптеры" style="text;html=1;align=center;verticalAlign=middle;resizable=0;points=[];autosize=1;fontStyle=1;fontSize=20;" parent="1" vertex="1">
          <mxGeometry x="353.16999999999996" y="50" width="120" height="40" as="geometry" />
        </mxCell>
        <mxCell id="u_KLf7gBActRq5No8dPF-4" value="Бизнес логика" style="text;html=1;align=center;verticalAlign=middle;resizable=0;points=[];autosize=1;fontStyle=1;fontSize=19;" parent="1" vertex="1">
          <mxGeometry x="333.16999999999996" y="190" width="160" height="40" as="geometry" />
        </mxCell>
        <mxCell id="u_KLf7gBActRq5No8dPF-5" value="" style="ellipse;whiteSpace=wrap;html=1;aspect=fixed;" parent="1" vertex="1">
          <mxGeometry x="343.17" y="280" width="140" height="140" as="geometry" />
        </mxCell>
        <mxCell id="u_KLf7gBActRq5No8dPF-6" value="Модели &lt;br style=&quot;font-size: 16px;&quot;&gt;бизнес&lt;br style=&quot;font-size: 16px;&quot;&gt;сущностей" style="text;html=1;align=center;verticalAlign=middle;resizable=0;points=[];autosize=1;fontStyle=1;fontSize=16;" parent="1" vertex="1">
          <mxGeometry x="358.16999999999996" y="315" width="110" height="70" as="geometry" />
        </mxCell>
        <mxCell id="u_KLf7gBActRq5No8dPF-7" value="входной порт" style="rounded=0;whiteSpace=wrap;html=1;rotation=-60;fontStyle=1;fontSize=12;" parent="1" vertex="1">
          <mxGeometry x="248.17000000000002" y="250" width="110" height="50" as="geometry" />
        </mxCell>
        <mxCell id="u_KLf7gBActRq5No8dPF-8" value="входной порт" style="rounded=0;whiteSpace=wrap;html=1;rotation=-120;fontStyle=1;fontSize=12;" parent="1" vertex="1">
          <mxGeometry x="248.17000000000002" y="390" width="110" height="50" as="geometry" />
        </mxCell>
        <mxCell id="u_KLf7gBActRq5No8dPF-34" style="edgeStyle=none;rounded=0;orthogonalLoop=1;jettySize=auto;html=1;exitX=0.5;exitY=0;exitDx=0;exitDy=0;entryX=0;entryY=0.5;entryDx=0;entryDy=0;" parent="1" source="u_KLf7gBActRq5No8dPF-9" target="u_KLf7gBActRq5No8dPF-16" edge="1">
          <mxGeometry relative="1" as="geometry" />
        </mxCell>
        <mxCell id="u_KLf7gBActRq5No8dPF-9" value="выходной порт" style="rounded=0;whiteSpace=wrap;html=1;rotation=60;flipV=1;flipH=1;direction=east;fontStyle=1;fontSize=12;" parent="1" vertex="1">
          <mxGeometry x="468.17" y="250" width="110" height="50" as="geometry" />
        </mxCell>
        <mxCell id="u_KLf7gBActRq5No8dPF-35" style="edgeStyle=none;rounded=0;orthogonalLoop=1;jettySize=auto;html=1;exitX=0.5;exitY=1;exitDx=0;exitDy=0;entryX=0;entryY=0.5;entryDx=0;entryDy=0;" parent="1" source="u_KLf7gBActRq5No8dPF-10" target="u_KLf7gBActRq5No8dPF-17" edge="1">
          <mxGeometry relative="1" as="geometry" />
        </mxCell>
        <mxCell id="u_KLf7gBActRq5No8dPF-10" value="выходной порт" style="rounded=0;whiteSpace=wrap;html=1;rotation=-60;flipV=1;fontStyle=1;fontSize=12;" parent="1" vertex="1">
          <mxGeometry x="468.17" y="390" width="110" height="50" as="geometry" />
        </mxCell>
        <mxCell id="u_KLf7gBActRq5No8dPF-11" value="выходной порт" style="rounded=0;whiteSpace=wrap;html=1;rotation=0;flipV=1;fontStyle=1;fontSize=12;" parent="1" vertex="1">
          <mxGeometry x="358.17" y="460" width="110" height="50" as="geometry" />
        </mxCell>
        <mxCell id="u_KLf7gBActRq5No8dPF-12" value="База данных" style="shape=datastore;html=1;labelPosition=center;verticalLabelPosition=middle;align=center;verticalAlign=middle;labelBorderColor=none;labelBackgroundColor=none;fontStyle=1;fontSize=12;" parent="1" vertex="1">
          <mxGeometry x="747" y="120" width="80" height="90" as="geometry" />
        </mxCell>
        <mxCell id="u_KLf7gBActRq5No8dPF-13" value="Объектное&lt;br style=&quot;font-size: 12px;&quot;&gt;хранилище" style="shape=datastore;html=1;labelPosition=center;verticalLabelPosition=middle;align=center;verticalAlign=middle;labelBorderColor=none;labelBackgroundColor=none;fontStyle=1;fontSize=12;" parent="1" vertex="1">
          <mxGeometry x="747" y="510" width="80" height="90" as="geometry" />
        </mxCell>
        <mxCell id="u_KLf7gBActRq5No8dPF-15" value="Платежный&lt;br style=&quot;font-size: 12px;&quot;&gt;шлюз" style="rounded=0;whiteSpace=wrap;html=1;labelPosition=center;verticalLabelPosition=middle;align=center;verticalAlign=bottom;fontStyle=1;fontSize=12;" parent="1" vertex="1">
          <mxGeometry x="373.99999999999994" y="730" width="80" height="110" as="geometry" />
        </mxCell>
        <mxCell id="u_KLf7gBActRq5No8dPF-14" value="" style="shape=mxgraph.signs.travel.cashier;html=1;pointerEvents=1;verticalLabelPosition=bottom;verticalAlign=top;align=center;sketch=0;" parent="1" vertex="1">
          <mxGeometry x="393.66999999999996" y="750" width="39" height="39" as="geometry" />
        </mxCell>
        <mxCell id="u_KLf7gBActRq5No8dPF-20" style="edgeStyle=none;rounded=0;orthogonalLoop=1;jettySize=auto;html=1;exitX=1;exitY=0.5;exitDx=0;exitDy=0;entryX=0;entryY=0.5;entryDx=0;entryDy=0;endArrow=none;endFill=0;dashed=1;" parent="1" source="u_KLf7gBActRq5No8dPF-16" target="u_KLf7gBActRq5No8dPF-12" edge="1">
          <mxGeometry relative="1" as="geometry" />
        </mxCell>
        <mxCell id="u_KLf7gBActRq5No8dPF-16" value="Адаптер репозиториев" style="rounded=0;whiteSpace=wrap;html=1;rotation=-30;flipV=1;flipH=1;direction=east;fontStyle=1;fontSize=12;" parent="1" vertex="1">
          <mxGeometry x="570" y="190" width="110" height="50" as="geometry" />
        </mxCell>
        <mxCell id="u_KLf7gBActRq5No8dPF-19" style="edgeStyle=none;rounded=0;orthogonalLoop=1;jettySize=auto;html=1;exitX=1;exitY=0.5;exitDx=0;exitDy=0;entryX=0;entryY=0.5;entryDx=0;entryDy=0;endArrow=none;endFill=0;dashed=1;" parent="1" source="u_KLf7gBActRq5No8dPF-17" target="u_KLf7gBActRq5No8dPF-13" edge="1">
          <mxGeometry relative="1" as="geometry" />
        </mxCell>
        <mxCell id="u_KLf7gBActRq5No8dPF-17" value="Адаптер объектного хранилища" style="rounded=0;whiteSpace=wrap;html=1;rotation=30;flipV=1;fontStyle=1;fontSize=12;" parent="1" vertex="1">
          <mxGeometry x="578.17" y="460" width="110" height="50" as="geometry" />
        </mxCell>
        <mxCell id="u_KLf7gBActRq5No8dPF-21" style="edgeStyle=none;rounded=0;orthogonalLoop=1;jettySize=auto;html=1;exitX=0.5;exitY=1;exitDx=0;exitDy=0;entryX=0.5;entryY=0;entryDx=0;entryDy=0;endArrow=none;endFill=0;dashed=1;" parent="1" source="u_KLf7gBActRq5No8dPF-18" target="u_KLf7gBActRq5No8dPF-15" edge="1">
          <mxGeometry relative="1" as="geometry" />
        </mxCell>
        <mxCell id="u_KLf7gBActRq5No8dPF-22" style="edgeStyle=none;rounded=0;orthogonalLoop=1;jettySize=auto;html=1;exitX=0.5;exitY=0;exitDx=0;exitDy=0;entryX=0.5;entryY=1;entryDx=0;entryDy=0;" parent="1" source="u_KLf7gBActRq5No8dPF-18" target="u_KLf7gBActRq5No8dPF-11" edge="1">
          <mxGeometry relative="1" as="geometry" />
        </mxCell>
        <mxCell id="u_KLf7gBActRq5No8dPF-18" value="Адаптер платежного шлюза" style="rounded=0;whiteSpace=wrap;html=1;rotation=0;flipV=1;fontStyle=1;fontSize=12;" parent="1" vertex="1">
          <mxGeometry x="359" y="570" width="110" height="50" as="geometry" />
        </mxCell>
        <mxCell id="u_KLf7gBActRq5No8dPF-28" style="edgeStyle=none;rounded=0;orthogonalLoop=1;jettySize=auto;html=1;exitX=1;exitY=0.5;exitDx=0;exitDy=0;entryX=0.5;entryY=0;entryDx=0;entryDy=0;" parent="1" source="u_KLf7gBActRq5No8dPF-27" target="u_KLf7gBActRq5No8dPF-8" edge="1">
          <mxGeometry relative="1" as="geometry" />
        </mxCell>
        <mxCell id="u_KLf7gBActRq5No8dPF-27" value="Адаптер платежного шлюза" style="rounded=0;whiteSpace=wrap;html=1;rotation=-30;flipV=1;fontStyle=1;fontSize=12;" parent="1" vertex="1">
          <mxGeometry x="138.17000000000002" y="450" width="110" height="50" as="geometry" />
        </mxCell>
        <mxCell id="u_KLf7gBActRq5No8dPF-32" style="edgeStyle=none;rounded=0;orthogonalLoop=1;jettySize=auto;html=1;exitX=0.5;exitY=0;exitDx=0;exitDy=0;exitPerimeter=0;" parent="1" source="u_KLf7gBActRq5No8dPF-29" target="u_KLf7gBActRq5No8dPF-31" edge="1">
          <mxGeometry relative="1" as="geometry" />
        </mxCell>
        <mxCell id="u_KLf7gBActRq5No8dPF-29" value="Actor" style="shape=umlActor;verticalLabelPosition=bottom;verticalAlign=top;html=1;outlineConnect=0;" parent="1" vertex="1">
          <mxGeometry x="52.5" y="760" width="50" height="100" as="geometry" />
        </mxCell>
        <mxCell id="u_KLf7gBActRq5No8dPF-33" style="edgeStyle=none;rounded=0;orthogonalLoop=1;jettySize=auto;html=1;exitX=0.5;exitY=0;exitDx=0;exitDy=0;entryX=0;entryY=0.5;entryDx=0;entryDy=0;" parent="1" source="u_KLf7gBActRq5No8dPF-31" target="u_KLf7gBActRq5No8dPF-27" edge="1">
          <mxGeometry relative="1" as="geometry" />
        </mxCell>
        <mxCell id="u_KLf7gBActRq5No8dPF-31" value="WEB UI" style="rounded=0;whiteSpace=wrap;html=1;labelPosition=center;verticalLabelPosition=middle;align=center;verticalAlign=bottom;fontStyle=1;fontSize=12;" parent="1" vertex="1">
          <mxGeometry y="590" width="155" height="120" as="geometry" />
        </mxCell>
        <mxCell id="u_KLf7gBActRq5No8dPF-30" value="" style="html=1;verticalLabelPosition=bottom;align=center;labelBackgroundColor=#ffffff;verticalAlign=top;strokeWidth=2;shadow=0;dashed=0;shape=mxgraph.ios7.icons.globe;" parent="1" vertex="1">
          <mxGeometry x="42.5" y="600" width="70" height="70" as="geometry" />
        </mxCell>
      </root>
    </mxGraphModel>
  </diagram>
  <diagram id="gPxiHRdpjwUfYN0QF7Gs" name="Page-2">
    <mxGraphModel dx="984" dy="718" grid="1" gridSize="10" guides="1" tooltips="1" connect="1" arrows="1" fold="1" page="1" pageScale="1" pageWidth="827" pageHeight="1169" math="0" shadow="0">
      <root>
        <mxCell id="0" />
        <mxCell id="1" parent="0" />
        <mxCell id="fCqB_uW0DAi3_9mbzS2o-1" style="edgeStyle=orthogonalEdgeStyle;rounded=0;orthogonalLoop=1;jettySize=auto;html=1;exitX=0.5;exitY=1;exitDx=0;exitDy=0;entryX=0.5;entryY=0;entryDx=0;entryDy=0;endArrow=none;endFill=0;startArrow=classic;startFill=1;" parent="1" source="1PIhR0hoF_3SCPlG5OQE-12" target="1PIhR0hoF_3SCPlG5OQE-14" edge="1">
          <mxGeometry relative="1" as="geometry" />
        </mxCell>
        <mxCell id="fCqB_uW0DAi3_9mbzS2o-4" style="edgeStyle=orthogonalEdgeStyle;rounded=0;orthogonalLoop=1;jettySize=auto;html=1;exitX=1;exitY=0.5;exitDx=0;exitDy=0;entryX=0;entryY=0.5;entryDx=0;entryDy=0;endArrow=none;endFill=0;startArrow=classic;startFill=1;" parent="1" source="1PIhR0hoF_3SCPlG5OQE-12" target="ZUIh8QWGtMw-rdBQJRTa-1" edge="1">
          <mxGeometry relative="1" as="geometry" />
        </mxCell>
        <mxCell id="fCqB_uW0DAi3_9mbzS2o-5" style="edgeStyle=orthogonalEdgeStyle;rounded=0;orthogonalLoop=1;jettySize=auto;html=1;exitX=0.5;exitY=0;exitDx=0;exitDy=0;endArrow=none;endFill=0;startArrow=classic;startFill=1;" parent="1" source="1PIhR0hoF_3SCPlG5OQE-12" target="1PIhR0hoF_3SCPlG5OQE-13" edge="1">
          <mxGeometry relative="1" as="geometry" />
        </mxCell>
        <mxCell id="1PIhR0hoF_3SCPlG5OQE-12" value="Бизнес логика" style="rounded=0;whiteSpace=wrap;html=1;" parent="1" vertex="1">
          <mxGeometry x="360" y="280" width="120" height="60" as="geometry" />
        </mxCell>
        <mxCell id="1PIhR0hoF_3SCPlG5OQE-13" value="Интерфейс" style="rounded=0;whiteSpace=wrap;html=1;" parent="1" vertex="1">
          <mxGeometry x="360" y="160" width="120" height="60" as="geometry" />
        </mxCell>
        <mxCell id="fCqB_uW0DAi3_9mbzS2o-2" style="edgeStyle=orthogonalEdgeStyle;rounded=0;orthogonalLoop=1;jettySize=auto;html=1;exitX=0.25;exitY=1;exitDx=0;exitDy=0;entryX=0.5;entryY=0;entryDx=0;entryDy=0;" parent="1" source="1PIhR0hoF_3SCPlG5OQE-14" target="1PIhR0hoF_3SCPlG5OQE-15" edge="1">
          <mxGeometry relative="1" as="geometry" />
        </mxCell>
        <mxCell id="fCqB_uW0DAi3_9mbzS2o-3" style="edgeStyle=orthogonalEdgeStyle;rounded=0;orthogonalLoop=1;jettySize=auto;html=1;exitX=0.75;exitY=1;exitDx=0;exitDy=0;entryX=0.5;entryY=0;entryDx=0;entryDy=0;" parent="1" source="1PIhR0hoF_3SCPlG5OQE-14" target="1PIhR0hoF_3SCPlG5OQE-29" edge="1">
          <mxGeometry relative="1" as="geometry" />
        </mxCell>
        <mxCell id="1PIhR0hoF_3SCPlG5OQE-14" value="Уровень доступа к базе данных" style="rounded=0;whiteSpace=wrap;html=1;" parent="1" vertex="1">
          <mxGeometry x="360" y="400" width="120" height="60" as="geometry" />
        </mxCell>
        <mxCell id="1PIhR0hoF_3SCPlG5OQE-15" value="База данных" style="shape=datastore;whiteSpace=wrap;html=1;" parent="1" vertex="1">
          <mxGeometry x="332.25" y="515" width="70" height="70" as="geometry" />
        </mxCell>
        <mxCell id="1PIhR0hoF_3SCPlG5OQE-17" style="edgeStyle=orthogonalEdgeStyle;rounded=0;orthogonalLoop=1;jettySize=auto;html=1;entryX=0.5;entryY=0;entryDx=0;entryDy=0;endArrow=open;endFill=0;endSize=10;startArrow=open;startFill=0;startSize=10;" parent="1" source="1PIhR0hoF_3SCPlG5OQE-16" target="1PIhR0hoF_3SCPlG5OQE-13" edge="1">
          <mxGeometry relative="1" as="geometry" />
        </mxCell>
        <mxCell id="1PIhR0hoF_3SCPlG5OQE-16" value="Пользователь" style="shape=umlActor;verticalLabelPosition=top;verticalAlign=bottom;html=1;outlineConnect=0;labelPosition=center;align=center;" parent="1" vertex="1">
          <mxGeometry x="402.25" y="30" width="35.5" height="70" as="geometry" />
        </mxCell>
        <mxCell id="1PIhR0hoF_3SCPlG5OQE-29" value="Объектное хранилище" style="shape=datastore;whiteSpace=wrap;html=1;" parent="1" vertex="1">
          <mxGeometry x="440" y="515" width="70" height="70" as="geometry" />
        </mxCell>
        <mxCell id="ZUIh8QWGtMw-rdBQJRTa-1" value="Сервис оплаты" style="rounded=0;whiteSpace=wrap;html=1;" parent="1" vertex="1">
          <mxGeometry x="550" y="280" width="120" height="60" as="geometry" />
        </mxCell>
      </root>
    </mxGraphModel>
  </diagram>
</mxfile>
